<?xml version="1.0" encoding="UTF-8" standalone="no"?>
<!-- Created with Inkscape (http://www.inkscape.org/) -->

<svg
   xmlns:dc="http://purl.org/dc/elements/1.1/"
   xmlns:cc="http://creativecommons.org/ns#"
   xmlns:rdf="http://www.w3.org/1999/02/22-rdf-syntax-ns#"
   xmlns:svg="http://www.w3.org/2000/svg"
   xmlns="http://www.w3.org/2000/svg"
   xmlns:sodipodi="http://sodipodi.sourceforge.net/DTD/sodipodi-0.dtd"
   xmlns:inkscape="http://www.inkscape.org/namespaces/inkscape"
   width="57.393593mm"
   height="13.404968mm"
   viewBox="0 0 203.36312 47.497919"
   id="svg5261"
   version="1.1"
   inkscape:version="0.91 r13725"
   sodipodi:docname="Bank BTN logo.svg">
  <defs
     id="defs5263">
    <clipPath
       clipPathUnits="userSpaceOnUse"
       id="clipPath66">
      <path
         d="m 0,0 595.276,0 0,841.89 L 0,841.89 0,0 Z"
         id="path68"
         inkscape:connector-curvature="0" />
    </clipPath>
    <clipPath
       clipPathUnits="userSpaceOnUse"
       id="clipPath30">
      <path
         d="m 0,0 595.276,0 0,841.89 L 0,841.89 0,0 Z"
         id="path32"
         inkscape:connector-curvature="0" />
    </clipPath>
  </defs>
  <sodipodi:namedview
     id="base"
     pagecolor="#ffffff"
     bordercolor="#666666"
     borderopacity="1.0"
     inkscape:pageopacity="0.0"
     inkscape:pageshadow="2"
     inkscape:zoom="0.35"
     inkscape:cx="752.39589"
     inkscape:cy="-436.25105"
     inkscape:document-units="px"
     inkscape:current-layer="layer1"
     showgrid="false"
     fit-margin-top="0"
     fit-margin-left="0"
     fit-margin-right="0"
     fit-margin-bottom="0"
     inkscape:window-width="1366"
     inkscape:window-height="705"
     inkscape:window-x="-8"
     inkscape:window-y="-8"
     inkscape:window-maximized="1" />
  <metadata
     id="metadata5266">
    <rdf:RDF>
      <cc:Work
         rdf:about="">
        <dc:format>image/svg+xml</dc:format>
        <dc:type
           rdf:resource="http://purl.org/dc/dcmitype/StillImage" />
        <dc:title></dc:title>
      </cc:Work>
    </rdf:RDF>
  </metadata>
  <g
     inkscape:label="Layer 1"
     inkscape:groupmode="layer"
     id="layer1"
     transform="translate(864.53875,-48.61323)">
    <g
       transform="matrix(1.25,0,0,-1.25,-1343.44,1055.9759)"
       id="g26">
      <g
         id="g28"
         clip-path="url(#clipPath30)">
        <g
           id="g34"
           transform="translate(383.308,782.5246)">
          <path
             d="m 0,0 c 0.4,0.084 0.699,0.193 0.889,0.326 0.436,0.309 0.744,0.896 0.932,1.767 l 2.925,13.609 c 0.081,0.405 0.139,0.741 0.171,1.008 0.036,0.266 0.05,0.473 0.039,0.623 -0.031,0.542 -0.207,0.883 -0.519,1.023 -0.112,0.048 -0.248,0.095 -0.422,0.134 l 0.207,0.946 6.664,0 c 2.274,0 4.057,-0.358 5.346,-1.08 1.299,-0.713 1.996,-1.864 2.093,-3.467 0.095,-1.55 -0.602,-2.788 -2.091,-3.714 C 15.433,10.671 14.348,10.251 12.97,9.913 14.275,9.457 15.207,9.001 15.769,8.552 16.714,7.79 17.228,6.745 17.303,5.426 17.41,3.755 16.803,2.285 15.506,1.026 14.204,-0.23 11.945,-0.857 8.722,-0.857 l -8.909,0 L 0,0 Z M 6.921,0.211 C 7.17,0.128 7.562,0.089 8.085,0.089 c 1.93,0 3.264,0.892 4.001,2.668 0.434,1.052 0.622,2.154 0.556,3.291 -0.081,1.394 -0.625,2.33 -1.616,2.811 C 10.438,9.147 9.38,9.325 7.854,9.392 L 6.298,1.986 C 6.267,1.868 6.235,1.734 6.214,1.573 6.203,1.422 6.203,1.251 6.217,1.051 6.243,0.638 6.475,0.359 6.921,0.211 m 4.151,10.442 c 0.548,0.129 1.043,0.401 1.479,0.817 0.557,0.521 0.932,1.249 1.131,2.175 0.127,0.603 0.181,1.2 0.143,1.789 -0.056,0.893 -0.287,1.611 -0.694,2.166 -0.409,0.562 -1.168,0.845 -2.271,0.845 -0.47,0 -0.787,-0.112 -0.965,-0.324 C 9.727,17.898 9.605,17.564 9.51,17.112 L 8.051,10.299 c 1.474,0.113 2.481,0.235 3.021,0.354"
             style="fill:#0069ab;fill-opacity:1;fill-rule:nonzero;stroke:none"
             id="path36"
             inkscape:connector-curvature="0" />
        </g>
        <g
           id="g38"
           transform="translate(404.0737,792.0671)">
          <path
             d="m 0,0 c 1.719,2.397 3.528,3.594 5.425,3.594 0.777,0 1.353,-0.226 1.744,-0.675 0.23,-0.278 0.449,-0.742 0.652,-1.394 l 1.183,1.676 2.639,0 -1.811,-6.936 C 9.578,-4.745 9.397,-5.51 9.297,-6.046 9.082,-7.063 8.982,-7.785 9.005,-8.22 c 0.01,-0.181 0.055,-0.306 0.14,-0.373 0.083,-0.069 0.169,-0.102 0.267,-0.102 0.183,0 0.348,0.062 0.508,0.193 0.164,0.137 0.347,0.326 0.536,0.578 l 0.134,0.158 c 0.208,-0.136 0.479,-0.327 0.71,-0.489 -0.467,-0.632 -0.92,-1.155 -1.369,-1.582 -0.703,-0.682 -1.445,-1.022 -2.2,-1.022 -0.468,0 -0.928,0.173 -1.382,0.517 -0.454,0.347 -0.697,0.852 -0.73,1.528 -0.011,0.251 0.087,0.865 0.288,1.842 L 5.804,-7.141 C 5.706,-7.318 5.543,-7.581 5.326,-7.924 4.828,-8.737 4.231,-9.423 3.525,-9.988 c -0.691,-0.56 -1.483,-0.84 -2.368,-0.84 -0.811,0 -1.568,0.298 -2.292,0.905 -0.721,0.599 -1.122,1.622 -1.196,3.067 C -2.442,-4.627 -1.664,-2.343 0,0 M 6.95,1.645 C 6.743,2.099 6.38,2.321 5.867,2.321 4.764,2.321 3.702,1.026 2.679,-1.569 1.772,-3.876 1.352,-5.634 1.415,-6.856 c 0.022,-0.487 0.161,-0.905 0.416,-1.262 0.266,-0.356 0.596,-0.535 0.988,-0.535 1.015,-0.009 2.089,1.324 3.23,4.001 0.799,2.243 1.163,4.021 1.097,5.331 C 7.129,1.076 7.064,1.4 6.95,1.645"
             style="fill:#0069ab;fill-opacity:1;fill-rule:nonzero;stroke:none"
             id="path40"
             inkscape:connector-curvature="0" />
        </g>
        <g
           id="g42"
           transform="translate(415.9761,781.6676)">
          <path
             d="m 0,0 2.36,10.215 c 0.089,0.391 0.151,0.707 0.193,0.933 0.078,0.421 0.114,0.719 0.107,0.887 C 2.637,12.4 2.51,12.627 2.28,12.718 2.159,12.761 1.974,12.801 1.732,12.83 l 0.14,0.771 4.896,0 L 5.276,8.352 5.355,8.311 C 5.308,8.26 5.579,8.709 6.178,9.657 c 0.594,0.957 1.169,1.734 1.718,2.327 0.55,0.603 1.126,1.08 1.728,1.437 0.62,0.363 1.267,0.549 1.966,0.549 0.636,0 1.194,-0.186 1.654,-0.549 0.474,-0.366 0.73,-0.962 0.776,-1.797 0.04,-0.769 -0.327,-2.463 -1.084,-5.09 -0.77,-2.622 -1.148,-4.021 -1.135,-4.207 0.004,-0.181 0.068,-0.317 0.181,-0.419 0.115,-0.085 0.225,-0.132 0.335,-0.132 0.245,0 0.579,0.282 1.017,0.847 l 0.72,-0.46 C 13.739,1.697 13.456,1.329 13.196,1.052 c -0.862,-0.92 -1.803,-1.38 -2.824,-1.38 -0.544,0 -1.04,0.163 -1.492,0.475 C 8.439,0.463 8.201,0.963 8.166,1.645 8.146,2.079 8.219,2.713 8.381,3.543 8.551,4.371 8.76,5.221 9.014,6.104 l 1.288,4.534 0.057,0.278 c 0.013,0.079 0.021,0.16 0.021,0.24 -0.014,0.224 -0.099,0.384 -0.266,0.468 -0.15,0.092 -0.317,0.136 -0.498,0.136 -0.618,0 -1.29,-0.48 -2.003,-1.45 C 6.899,9.35 6.323,8.396 5.886,7.434 5.413,6.4 5.031,5.348 4.727,4.282 4.426,3.213 4.069,1.787 3.662,0 L 0,0 Z"
             style="fill:#0069ab;fill-opacity:1;fill-rule:nonzero;stroke:none"
             id="path44"
             inkscape:connector-curvature="0" />
        </g>
        <g
           id="g46"
           transform="translate(430.6213,781.6676)">
          <path
             d="m 0,0 c 0,0 3.966,17.794 3.996,17.986 0.031,0.184 0.042,0.365 0.035,0.547 -0.026,0.45 -0.182,0.728 -0.474,0.828 C 3.416,19.407 3.236,19.441 3,19.464 l 0.181,0.821 4.951,0 L 5.289,7.334 c 1.102,0.828 2.066,1.615 2.879,2.352 1.256,1.156 1.877,1.962 1.851,2.418 -0.014,0.325 -0.173,0.527 -0.471,0.609 -0.134,0.032 -0.277,0.066 -0.442,0.088 l 0.176,0.812 4.458,-0.049 -0.293,-1.029 c -0.806,-0.028 -0.754,-0.099 -2.727,-1.973 0,0 -1.467,-1.386 -1.66,-1.558 L 8.912,8.868 C 8.938,8.788 9.06,8.271 9.282,7.321 9.541,6.221 9.74,5.475 9.866,5.081 c 0.447,-1.321 0.765,-2.187 0.965,-2.59 0.205,-0.397 0.49,-0.594 0.841,-0.594 0.363,0 0.685,0.193 0.983,0.58 0.031,0.039 0.07,0.092 0.108,0.149 l 0.638,-0.48 C 13.119,1.678 12.813,1.241 12.484,0.846 11.858,0.095 11.102,-0.281 10.223,-0.281 9.556,-0.281 8.985,-0.056 8.515,0.384 8.048,0.828 7.651,1.422 7.329,2.163 6.984,2.943 6.684,3.839 6.433,4.857 6.199,5.875 6.072,6.428 6.068,6.516 L 4.928,5.688 3.7,0 0,0 Z"
             style="fill:#0069ab;fill-opacity:1;fill-rule:nonzero;stroke:none"
             id="path48"
             inkscape:connector-curvature="0" />
        </g>
        <g
           id="g50"
           transform="translate(493.0301,797.3198)">
          <path
             d="m 0,0 3.208,0 c 1.111,0 1.935,-0.227 1.935,-1.449 0,-1.254 -1.251,-1.62 -2.243,-1.62 l -3.528,0 L 0,0 Z m -9.286,-15.425 11.642,0 c 4.44,0 8.359,1.937 8.359,6.828 0,1.872 -1.19,3.667 -3.071,4.066 l 0,0.054 0.028,0 c 2.448,0.651 3.725,2.332 3.725,4.888 0,2.933 -1.648,4.466 -6.055,4.466 l -10.42,0 -4.208,-20.302 z m 7.889,8.573 3.437,0 c 1.31,0 2.424,-0.227 2.424,-1.739 0,-1.646 -1.534,-2.041 -2.648,-2.041 l -4.011,0 0.798,3.78 z"
             style="fill:#0069ab;fill-opacity:1;fill-rule:nonzero;stroke:none"
             id="path52"
             inkscape:connector-curvature="0" />
        </g>
      </g>
    </g>
    <g
       id="g54"
       transform="matrix(1.25,0,0,-1.25,-707.09471,78.60723)">
      <path
         d="m 0,0 6.25,0 3.13,15.102 5.629,0 1.085,5.2 -17.518,0 -1.079,-5.2 5.629,0 L 0,0 Z"
         style="fill:#0069ab;fill-opacity:1;fill-rule:nonzero;stroke:none"
         id="path56"
         inkscape:connector-curvature="0" />
    </g>
    <g
       id="g58"
       transform="matrix(1.25,0,0,-1.25,-689.47346,78.60723)">
      <path
         d="m 0,0 5.941,0 2.359,11.373 0.056,0 L 12.079,0 l 6.142,0 4.268,20.302 -5.947,0 -2.273,-11.089 -0.054,0 -3.81,11.089 -6.202,0 L 0,0 Z"
         style="fill:#0069ab;fill-opacity:1;fill-rule:nonzero;stroke:none"
         id="path60"
         inkscape:connector-curvature="0" />
    </g>
    <g
       transform="matrix(1.25,0,0,-1.25,-1343.44,1055.9759)"
       id="g62">
      <g
         id="g64"
         clip-path="url(#clipPath66)">
        <g
           id="g70"
           transform="translate(481.4295,767.8918)">
          <path
             d="m 0,0 c 0.187,0.691 0.11,0.687 0.572,2.551 0.332,1.837 2.355,4.651 5.922,4.94 1.216,0.145 47.91,2.129 57.888,2.828 L 64.083,8.593 C 54.682,7.378 12.148,1.612 0,0"
             style="fill:#e31c24;fill-opacity:1;fill-rule:nonzero;stroke:none"
             id="path72"
             inkscape:connector-curvature="0" />
        </g>
      </g>
    </g>
    <g
       id="g74"
       transform="matrix(1.25,0,0,-1.25,-767.17296,78.61073)">
      <path
         d="M 0,0 0,-3.687 3.197,-1.841 6.395,-3.687 6.395,0 3.197,1.849 0,0 Z"
         style="fill:#a68561;fill-opacity:1;fill-rule:nonzero;stroke:none"
         id="path76"
         inkscape:connector-curvature="0" />
    </g>
    <g
       id="g78"
       transform="matrix(1.25,0,0,-1.25,-751.18946,78.61073)">
      <path
         d="M 0,0 0,3.697 -9.591,9.234 -19.176,3.697 -19.176,0 -9.591,5.543 0,0 Z"
         style="fill:#a68561;fill-opacity:1;fill-rule:nonzero;stroke:none"
         id="path80"
         inkscape:connector-curvature="0" />
    </g>
    <g
       id="g82"
       transform="matrix(1.25,0,0,-1.25,-779.15984,57.84198)">
      <path
         d="M 0,0 12.787,7.383 25.576,0 l 0,-14.766 -3.198,-1.849 0,14.766 -9.591,5.54 -9.588,-5.54 0,-14.766 L 0,-14.766 0,0 Z"
         style="fill:#0069ab;fill-opacity:1;fill-rule:nonzero;stroke:none"
         id="path84"
         inkscape:connector-curvature="0" />
    </g>
    <g
       id="g86"
       transform="matrix(1.25,0,0,-1.25,-763.17796,57.84198)">
      <path
         d="m 0,0 6.394,-3.693 0,-14.764 -3.195,-1.843 0,14.764 -3.199,1.843 -3.195,-1.843 0,-14.764 -3.194,1.843 0,14.764 L 0,0 Z"
         style="fill:#0069ab;fill-opacity:1;fill-rule:nonzero;stroke:none"
         id="path88"
         inkscape:connector-curvature="0" />
    </g>
  </g>
</svg>
